<svg id="SvgjsSvg1008" xmlns="http://www.w3.org/2000/svg" version="1.1" xmlns:xlink="http://www.w3.org/1999/xlink" xmlns:svgjs="http://svgjs.com/svgjs" width="67" height="70" viewBox="0 0 67 70"><title>logo.svg</title><desc>Created with Avocode.</desc><defs id="SvgjsDefs1009"><clipPath id="SvgjsClipPath1012"><path id="SvgjsPath1011" d="M990.675 352.857L961.8599999999999 297.86L933.0459999999999 352.857Z " fill="#ffffff"></path></clipPath><clipPath id="SvgjsClipPath1015"><path id="SvgjsPath1014" d="M961.5 285C980.002 285 995 299.87 995 318.214C995 336.558 980.002 351.429 961.5 351.429C942.998 351.429 928 336.558 928 318.21399999999994C928 299.86999999999995 942.998 284.99999999999994 961.5 284.99999999999994Z " fill="#ffffff"></path></clipPath></defs><path id="SvgjsPath1010" d="M990.675 352.857L961.8599999999999 297.86L933.0459999999999 352.857Z " fill-opacity="0" fill="#ffffff" stroke-dashoffset="0" stroke-linejoin="miter" stroke-linecap="butt" stroke-opacity="1" stroke="#ffffff" stroke-miterlimit="50" stroke-width="4" clip-path="url(&quot;#SvgjsClipPath1012&quot;)" transform="matrix(1,0,0,1,-928,-285)"></path><path id="SvgjsPath1013" d="M961.5 285C980.002 285 995 299.87 995 318.214C995 336.558 980.002 351.429 961.5 351.429C942.998 351.429 928 336.558 928 318.21399999999994C928 299.86999999999995 942.998 284.99999999999994 961.5 284.99999999999994Z " fill-opacity="0" fill="#ffffff" stroke-dashoffset="0" stroke-linejoin="miter" stroke-linecap="butt" stroke-opacity="1" stroke="#f6f7fc" stroke-miterlimit="50" stroke-width="4" clip-path="url(&quot;#SvgjsClipPath1015&quot;)" transform="matrix(1,0,0,1,-928,-285)"></path><path id="SvgjsPath1016" d="M961.86 347.857C963.85 347.857 965.462 349.456 965.462 351.42900000000003C965.462 353.401 963.85 355.00000000000006 961.86 355.00000000000006C959.871 355.00000000000006 958.258 353.40100000000007 958.258 351.42900000000003C958.258 349.456 959.8710000000001 347.857 961.86 347.857Z " fill="#ffffff" fill-opacity="1" transform="matrix(1,0,0,1,-928,-285)"></path><path id="SvgjsPath1017" d="M988.516 347.857C990.505 347.857 992.1179999999999 349.456 992.1179999999999 351.42900000000003C992.1179999999999 353.401 990.5049999999999 355.00000000000006 988.516 355.00000000000006C986.5269999999999 355.00000000000006 984.914 353.40100000000007 984.914 351.42900000000003C984.914 349.456 986.527 347.857 988.516 347.857Z " fill="#ffffff" fill-opacity="1" transform="matrix(1,0,0,1,-928,-285)"></path><path id="SvgjsPath1018" d="M933.043 347.857C935.032 347.857 936.645 349.456 936.645 351.42900000000003C936.645 353.401 935.0319999999999 355.00000000000006 933.043 355.00000000000006C931.054 355.00000000000006 929.441 353.40100000000007 929.441 351.42900000000003C929.441 349.456 931.0540000000001 347.857 933.043 347.857Z " fill="#ffffff" fill-opacity="1" transform="matrix(1,0,0,1,-928,-285)"></path></svg>