<svg id="SvgjsSvg1000" xmlns="http://www.w3.org/2000/svg" version="1.1" xmlns:xlink="http://www.w3.org/1999/xlink" xmlns:svgjs="http://svgjs.com/svgjs" width="24" height="39" viewBox="0 0 24 39"><title>scroll.svg</title><desc>Created with Avocode.</desc><defs id="SvgjsDefs1001"></defs><path id="SvgjsPath1007" d="M961.497 929.757C960.583 929.757 959.8399999999999 930.501 959.8399999999999 931.4159999999999C959.8399999999999 932.3309999999999 960.583 933.0749999999999 961.497 933.0749999999999C962.411 933.0749999999999 963.154 932.3309999999999 963.154 931.4159999999999C963.154 930.501 962.41 929.757 961.497 929.757ZM960.543 919.993C954.612 920.4680000000001 949.999 925.44 949.999 931.416V945.49C949.999 951.837 955.1560000000001 957.001 961.4970000000001 957.001C967.8380000000001 957.001 972.9960000000001 951.837 972.9960000000001 945.49V931.416C972.9960000000001 925.4440000000001 968.383 920.4720000000001 962.4510000000001 919.993ZM961.497 955.091C956.209 955.091 951.906 950.785 951.906 945.49V931.416C951.906 926.1210000000001 956.208 921.815 961.497 921.815C966.785 921.815 971.088 926.1210000000001 971.088 931.416V945.49C971.088 950.785 966.785 955.091 961.497 955.091Z " fill="#ffffff" fill-opacity="1" transform="matrix(1,0,0,1,-949,-919)"></path></svg>