<svg id="SvgjsSvg1025" xmlns="http://www.w3.org/2000/svg" version="1.1" xmlns:xlink="http://www.w3.org/1999/xlink" xmlns:svgjs="http://svgjs.com/svgjs" width="80" height="91" viewBox="0 0 80 91"><title>Shape 4</title><desc>Created with Avocode.</desc><defs id="SvgjsDefs1026"></defs><path id="SvgjsPath1027" d="M939.756 3177.11C939.3539999999999 3177.11 938.953 3176.96 938.6469999999999 3176.6600000000003L935.549 3173.5800000000004C934.937 3172.9700000000003 934.937 3171.9800000000005 935.549 3171.3800000000006C936.162 3170.7700000000004 937.155 3170.7700000000004 937.768 3171.3800000000006L939.7570000000001 3173.3500000000004L944.8430000000001 3168.3C945.455 3167.69 946.4490000000001 3167.69 947.0620000000001 3168.3C947.6750000000002 3168.9100000000003 947.6750000000002 3169.8900000000003 947.0620000000001 3170.5L940.8670000000001 3176.66C940.5590000000001 3176.96 940.157 3177.1099999999997 939.7560000000001 3177.1099999999997ZM972.311 3174.04H953.6370000000001C952.7710000000001 3174.04 952.0680000000001 3173.34 952.0680000000001 3172.48C952.0680000000001 3171.62 952.7710000000001 3170.92 953.6370000000001 3170.92H972.311C973.177 3170.92 973.88 3171.62 973.88 3172.48C973.88 3173.34 973.178 3174.04 972.311 3174.04ZM939.756 3203.79C939.3539999999999 3203.79 938.953 3203.64 938.6469999999999 3203.34L935.549 3200.26C934.937 3199.65 934.937 3198.6600000000003 935.549 3198.0600000000004C936.162 3197.4500000000003 937.155 3197.4500000000003 937.768 3198.0600000000004L939.7570000000001 3200.03L944.8430000000001 3194.98C945.455 3194.37 946.4490000000001 3194.37 947.0620000000001 3194.98C947.6750000000002 3195.59 947.6750000000002 3196.58 947.0620000000001 3197.18L940.8670000000001 3203.3399999999997C940.5590000000001 3203.64 940.157 3203.7899999999995 939.7560000000001 3203.7899999999995ZM972.311 3200.72H953.6370000000001C952.7710000000001 3200.72 952.0680000000001 3200.02 952.0680000000001 3199.16C952.0680000000001 3198.2999999999997 952.7710000000001 3197.6 953.6370000000001 3197.6H972.311C973.177 3197.6 973.88 3198.2999999999997 973.88 3199.16C973.88 3200.02 973.178 3200.72 972.311 3200.72ZM939.756 3217.14C939.3539999999999 3217.14 938.953 3216.98 938.6469999999999 3216.68L935.549 3213.6C934.937 3212.99 934.937 3212.0099999999998 935.549 3211.4C936.162 3210.79 937.155 3210.79 937.768 3211.4L939.7570000000001 3213.37L944.8430000000001 3208.3199999999997C945.455 3207.7099999999996 946.4490000000001 3207.7099999999996 947.0620000000001 3208.3199999999997C947.6760000000002 3208.93 947.6750000000002 3209.9199999999996 947.0620000000001 3210.5299999999997L940.8670000000001 3216.68C940.5590000000001 3216.98 940.157 3217.14 939.7560000000001 3217.14ZM972.311 3214.06H953.6370000000001C952.7710000000001 3214.06 952.0680000000001 3213.36 952.0680000000001 3212.5C952.0680000000001 3211.64 952.7710000000001 3210.94 953.6370000000001 3210.94H972.311C973.177 3210.94 973.88 3211.64 973.88 3212.5C973.88 3213.36 973.178 3214.06 972.311 3214.06ZM939.756 3190.45C939.3539999999999 3190.45 938.953 3190.2999999999997 938.6469999999999 3190L935.549 3186.92C934.937 3186.31 934.937 3185.32 935.549 3184.71C936.162 3184.11 937.155 3184.11 937.768 3184.71L939.7570000000001 3186.69L944.8430000000001 3181.64C945.455 3181.0299999999997 946.4490000000001 3181.0299999999997 947.0620000000001 3181.64C947.6760000000002 3182.25 947.6750000000002 3183.23 947.0620000000001 3183.8399999999997L940.8670000000001 3189.9999999999995C940.5590000000001 3190.2999999999997 940.157 3190.4499999999994 939.7560000000001 3190.4499999999994ZM972.311 3187.38H953.6370000000001C952.7710000000001 3187.38 952.0680000000001 3186.6800000000003 952.0680000000001 3185.82C952.0680000000001 3184.96 952.7710000000001 3184.26 953.6370000000001 3184.26H972.311C973.177 3184.26 973.88 3184.96 973.88 3185.82C973.88 3186.6800000000003 973.178 3187.38 972.311 3187.38ZM996.981 3152.48V3227.92C996.981 3229.07 996.049 3230 994.888 3230H920.081C918.9200000000001 3230 917.989 3229.07 917.989 3227.92V3152.48C917.989 3151.34 918.9200000000001 3150.4 920.081 3150.4H940.548C940.767 3147.2200000000003 943.435 3144.7200000000003 946.679 3144.7200000000003H952.673C952.705 3141.57 955.3 3139.01 958.48 3139.01C961.6700000000001 3139.01 964.254 3141.57 964.296 3144.7200000000003H970.2810000000001C973.5340000000001 3144.7200000000003 976.2020000000001 3147.2200000000003 976.422 3150.4H994.888C996.049 3150.4 996.981 3151.34 996.981 3152.48ZM944.713 3150.84V3155.1000000000004H972.259V3150.84C972.259 3149.76 971.381 3148.88 970.282 3148.88H963.743C961.745 3148.88 960.113 3147.26 960.113 3145.27V3144.79C960.113 3143.9 959.3800000000001 3143.17 958.4810000000001 3143.17C957.5910000000001 3143.17 956.8590000000002 3143.9 956.8590000000002 3144.79V3145.27C956.8590000000002 3147.2599999999998 955.2260000000001 3148.88 953.2180000000002 3148.88H946.6790000000002C945.5910000000002 3148.88 944.7110000000002 3149.76 944.7110000000002 3150.84ZM992.794 3225.84V3154.56H976.441V3157.18C976.441 3158.33 975.51 3159.2599999999998 974.349 3159.2599999999998H942.618C941.4570000000001 3159.2599999999998 940.5260000000001 3158.33 940.5260000000001 3157.18V3154.56H922.1730000000001V3225.84ZM958.485 3149.14C959.595 3149.14 960.494 3150.0299999999997 960.494 3151.14C960.494 3152.24 959.595 3153.1299999999997 958.485 3153.1299999999997C957.375 3153.1299999999997 956.475 3152.24 956.475 3151.14C956.475 3150.0299999999997 957.375 3149.14 958.485 3149.14Z " fill="#3c3c3c" fill-opacity="1" transform="matrix(1,0,0,1,-917,-3139)"></path></svg>