<svg id="SvgjsSvg1022" xmlns="http://www.w3.org/2000/svg" version="1.1" xmlns:xlink="http://www.w3.org/1999/xlink" xmlns:svgjs="http://svgjs.com/svgjs" width="80" height="77" viewBox="0 0 80 77"><title>Shape 3</title><desc>Created with Avocode.</desc><defs id="SvgjsDefs1023"></defs><path id="SvgjsPath1024" d="M994.921 2886H920.0780000000001C918.9290000000001 2886 917.998 2885.06 917.998 2883.9V2812.09C917.998 2810.9300000000003 918.9290000000001 2809.9900000000002 920.0780000000001 2809.9900000000002H994.921C996.0690000000001 2809.9900000000002 997 2810.9300000000003 997 2812.09V2883.9C997 2885.06 996.069 2886 994.921 2886ZM922.156 2881.8H992.842V2825.0800000000004H922.156ZM992.842 2814.19H922.156V2820.88H992.842ZM927.181 2816.07C927.984 2816.07 928.635 2816.73 928.635 2817.54C928.635 2818.35 927.984 2819.0099999999998 927.181 2819.0099999999998C926.3770000000001 2819.0099999999998 925.726 2818.35 925.726 2817.54C925.726 2816.73 926.377 2816.07 927.181 2816.07ZM931.531 2816.07C932.334 2816.07 932.9849999999999 2816.73 932.9849999999999 2817.54C932.9849999999999 2818.35 932.334 2819 931.531 2819C930.7289999999999 2819 930.078 2818.35 930.078 2817.54C930.078 2816.73 930.7289999999999 2816.07 931.531 2816.07ZM935.881 2816.07C936.684 2816.07 937.3349999999999 2816.73 937.3349999999999 2817.54C937.3349999999999 2818.35 936.684 2819.0099999999998 935.881 2819.0099999999998C935.078 2819.0099999999998 934.427 2818.35 934.427 2817.54C934.427 2816.73 935.078 2816.07 935.881 2816.07ZM947.045 2859.18C946.579 2859.18 946.115 2859 945.759 2858.64L940.099 2852.93C939.388 2852.21 939.388 2851.0499999999997 940.099 2850.33L945.748 2844.62C946.4590000000001 2843.91 947.61 2843.91 948.321 2844.62C949.032 2845.3399999999997 949.032 2846.5 948.321 2847.22L943.957 2851.6299999999997L948.331 2856.0399999999995C949.041 2856.7599999999993 949.041 2857.9199999999996 948.331 2858.6399999999994C947.976 2858.9999999999995 947.51 2859.1799999999994 947.0450000000001 2859.1799999999994ZM967.962 2859.18C967.497 2859.18 967.03 2859 966.676 2858.64C965.965 2857.92 965.965 2856.7599999999998 966.676 2856.04L971.041 2851.64L966.666 2847.22C965.956 2846.5 965.956 2845.3399999999997 966.666 2844.62C967.3760000000001 2843.91 968.5290000000001 2843.91 969.238 2844.62L974.898 2850.3399999999997C975.24 2850.68 975.432 2851.1499999999996 975.432 2851.64C975.432 2852.12 975.24 2852.5899999999997 974.898 2852.93L969.2470000000001 2858.64C968.892 2859 968.427 2859.18 967.9620000000001 2859.18ZM954.893 2863.42C954.744 2863.42 954.592 2863.4 954.441 2863.36C953.467 2863.11 952.8810000000001 2862.11 953.129 2861.13L957.7520000000001 2842.85C958.0000000000001 2841.86 958.9960000000001 2841.27 959.964 2841.52C960.9380000000001 2841.77 961.5260000000001 2842.77 961.278 2843.7599999999998L956.654 2862.04C956.444 2862.87 955.704 2863.42 954.893 2863.42Z " fill="#3c3c3c" fill-opacity="1" transform="matrix(1,0,0,1,-917,-2809)"></path></svg>