<svg id="SvgjsSvg1019" xmlns="http://www.w3.org/2000/svg" version="1.1" xmlns:xlink="http://www.w3.org/1999/xlink" xmlns:svgjs="http://svgjs.com/svgjs" width="81" height="85" viewBox="0 0 81 85"><title>Shape 2</title><desc>Created with Avocode.</desc><defs id="SvgjsDefs1020"></defs><path id="SvgjsPath1021" d="M994.956 2434.99H983.032C981.907 2434.99 981.0070000000001 2435.89 981.0070000000001 2437.0099999999998V2441.18H932.86V2437.0099999999998C932.86 2435.89 931.961 2434.99 930.836 2434.99H919.024C917.899 2434.99 916.999 2435.89 916.999 2437.0099999999998V2449.2799999999997C916.999 2450.3999999999996 917.899 2451.2999999999997 919.024 2451.2999999999997H930.948C932.073 2451.2999999999997 932.973 2450.3999999999996 932.973 2449.2799999999997V2445.1099999999997H955.134C954.909 2450.0599999999995 942.8720000000001 2473.3499999999995 935.223 2487.0799999999995C934.7729999999999 2487.8699999999994 934.9979999999999 2488.8799999999997 935.673 2489.5499999999993C942.535 2495.399999999999 944.222 2501.1399999999994 944.672 2504.0699999999993H942.085C940.96 2504.0699999999993 940.0600000000001 2504.9699999999993 940.0600000000001 2506.0899999999992V2515.9899999999993C940.0600000000001 2517.1199999999994 940.96 2518.0199999999995 942.085 2518.0199999999995H972.008C973.133 2518.0199999999995 974.033 2517.1199999999994 974.033 2515.9899999999993V2506.0899999999992C974.033 2504.9699999999993 973.133 2504.0699999999993 972.008 2504.0699999999993H969.4200000000001C969.8700000000001 2501.1399999999994 971.5580000000001 2495.399999999999 978.4200000000001 2489.5499999999993C979.095 2488.9899999999993 979.32 2487.8699999999994 978.8700000000001 2487.0799999999995C971.2200000000001 2473.3499999999995 959.1840000000001 2449.9499999999994 958.9590000000001 2445.1099999999997H981.0070000000001V2449.2799999999997C981.0070000000001 2450.3999999999996 981.907 2451.2999999999997 983.032 2451.2999999999997H994.956C996.081 2451.2999999999997 996.981 2450.3999999999996 996.981 2449.2799999999997V2437.0099999999998C996.981 2435.89 996.081 2434.99 994.956 2434.99ZM928.923 2447.25H920.936V2438.93H928.923ZM957.046 2480.22C958.509 2480.22 959.634 2481.3399999999997 959.634 2482.7999999999997C959.634 2484.2699999999995 958.509 2485.39 957.046 2485.39C955.5840000000001 2485.39 954.4590000000001 2484.27 954.4590000000001 2482.7999999999997C954.4590000000001 2481.45 955.696 2480.22 957.046 2480.22ZM970.095 2513.86H944.11V2507.8900000000003H970.095ZM965.483 2503.95H948.6089999999999C948.1589999999999 2500.6899999999996 946.472 2494.1699999999996 939.3849999999999 2487.5299999999997C942.0849999999999 2482.58 950.1839999999999 2467.7299999999996 955.0209999999998 2456.7V2476.62C952.4339999999999 2477.4 950.5219999999998 2479.88 950.5219999999998 2482.7999999999997C950.5219999999998 2486.3999999999996 953.4469999999998 2489.33 957.0459999999998 2489.33C960.6459999999998 2489.33 963.5709999999998 2486.4 963.5709999999998 2482.7999999999997C963.5709999999998 2479.8799999999997 961.6579999999998 2477.5199999999995 959.0709999999998 2476.62V2456.5899999999997C964.0209999999998 2467.62 972.0079999999998 2482.47 974.7069999999998 2487.5299999999997C967.6209999999998 2494.1699999999996 965.9329999999998 2500.6899999999996 965.4829999999997 2503.95ZM993.044 2447.25H985.057V2443.54C985.057 2443.43 985.057 2443.31 985.057 2443.2C985.057 2443.0899999999997 985.057 2442.98 985.057 2442.8599999999997V2439.0399999999995H993.044Z " fill="#3c3c3c" fill-opacity="1" transform="matrix(1,0,0,1,-916,-2434)"></path></svg>